<svg xmlns="http://www.w3.org/2000/svg" viewBox="0 0 1422 448" role="img" aria-labelledby="title desc">
  <title id="title">Opportunity Radar</title>
  <desc id="desc">Opportunity Radar project mark with a radar illustration and wordmark.</desc>
  <rect width="1422" height="448" fill="#f7f7f3"/>
  <g transform="translate(128 112)">
    <path d="M57 180h92l14 44H43z" fill="#4a2d1f"/>
    <path d="M54 178h98l8 31H46z" fill="#2d1d16"/>
    <circle cx="103" cy="90" r="86" fill="#2b211d"/>
    <circle cx="103" cy="90" r="76" fill="#b49268"/>
    <circle cx="103" cy="90" r="67" fill="#5a423d"/>
    <path d="M103 23a67 67 0 0 1 0 134z" fill="#6b5451" opacity=".52"/>
    <path d="M103 90h67M103 90V23" stroke="#ece1d6" stroke-width="3"/>
    <path d="M56 66a70 70 0 0 1 92 0M56 114a70 70 0 0 0 92 0" fill="none" stroke="#d3b694" stroke-width="1.3" stroke-dasharray="5 7" opacity=".6"/>
    <circle cx="103" cy="90" r="24" fill="none" stroke="#d3b694" stroke-width="1.5" stroke-dasharray="4 5" opacity=".65"/>
    <circle cx="103" cy="90" r="6" fill="#f7f7f3"/>
    <circle cx="103" cy="90" r="16" fill="none" stroke="#f7f7f3" stroke-width="3"/>
    <g transform="translate(58 49)">
      <circle cx="0" cy="0" r="14" fill="#ad6636" stroke="#e0b57c" stroke-width="2"/>
      <path d="M-8-5h13a3 3 0 0 1 3 3v8a3 3 0 0 1-3 3H-8a3 3 0 0 1-3-3v-8a3 3 0 0 1 3-3zm-1 1 7 5 7-5" fill="none" stroke="#f6dfc4" stroke-width="1.8" stroke-linecap="round" stroke-linejoin="round"/>
    </g>
    <g transform="translate(146 51)">
      <circle cx="0" cy="0" r="16" fill="#bd7435" stroke="#e0b57c" stroke-width="2"/>
      <circle cx="-3" cy="-3" r="5" fill="none" stroke="#f6dfc4" stroke-width="2"/>
      <path d="m2 2 7 7" stroke="#f6dfc4" stroke-width="2" stroke-linecap="round"/>
    </g>
    <g transform="translate(63 128)">
      <circle cx="0" cy="0" r="15" fill="#ba632a" stroke="#e0b57c" stroke-width="2"/>
      <rect x="-8" y="-6" width="16" height="12" rx="2" fill="none" stroke="#f6dfc4" stroke-width="1.8"/>
      <path d="M-5-1h10M-5 4h6" stroke="#f6dfc4" stroke-width="1.6" stroke-linecap="round"/>
    </g>
    <g transform="translate(143 126)">
      <circle cx="0" cy="0" r="15" fill="#78a63a" stroke="#bbd87b" stroke-width="2"/>
      <path d="M-7-6 7 6M7-6-7 6" stroke="#f6dfc4" stroke-width="3" stroke-linecap="round"/>
      <circle cx="-7" cy="-6" r="2" fill="#f6dfc4"/>
      <circle cx="7" cy="6" r="2" fill="#f6dfc4"/>
    </g>
  </g>
  <text x="346" y="242" fill="#101936" font-family="Georgia, 'Times New Roman', serif" font-size="92" font-weight="400">Opportunity Radar</text>
</svg>
